# xmcd
#
# Track frame offsets:
#	150
#	12474
#	28336
#	40672
#	51762
#	68442
#	81179
#	109011
#	120978
#	142380
#	154336
#	168788
#	186085
#	223745
#	238561
#	253506
#	281773
#	296638
#	309375
#
# Disc length: 4188 seconds
#
# Revision: 1
# Processed by: cddbd v1.5.2PL0 Copyright (c) Steve Scherf et al.
# Submitted via: audiograbber 1.83.01
#
DISCID=11105a13
DTITLE=IJmond Poparchief - Volume 2
DYEAR=1900
DGENRE=Pop
TTITLE0=The Anchestors - The bintangs are back in town
TTITLE1=1 4All - Borstal boys
TTITLE2=Pee Wee and The Specials - I've a boyfriend
TTITLE3=Blue Eyed Blues Band - You're my shunsine
TTITLE4=Dollar - Time to move
TTITLE5=Dollar - You
TTITLE6=Frank Kraaijeveld Band - Pain pain pain
TTITLE7=Panda - No cookies
TTITLE8=Downtown Rhythm Combo - Johnny be goode
TTITLE9=Van Dattum - Life is a play
TTITLE10=Binberg - La grange
TTITLE11=Alcmar Rock Foundation - Do you think you're gonna make it
TTITLE12=Cocknet Pride - Mess to the world
TTITLE13=Limonaya - Walk walk walk
TTITLE14=Carlsberg - Seventeen
TTITLE15=Kraaijeveld - Hound is on the run
TTITLE16=Invasion - Realist dream
TTITLE17=Bintangs - I'm a hog for you baby
TTITLE18=Jaap Castricum - De Internationale
EXTD=
EXTT0=
EXTT1=
EXTT2=
EXTT3=
EXTT4=
EXTT5=
EXTT6=
EXTT7=
EXTT8=
EXTT9=
EXTT10=
EXTT11=
EXTT12=
EXTT13=
EXTT14=
EXTT15=
EXTT16=
EXTT17=
EXTT18=
PLAYORDER=
